<svg width="175" height="34" viewBox="0 0 175 34" fill="none" xmlns="http://www.w3.org/2000/svg">
<path d="M19.2604 29.7423V27.7263H27.9724L29.2684 26.4063V22.8783L27.9724 21.5583H21.1324L18.6364 19.0623V14.5743L21.1324 12.0543H30.5404V14.0703H22.1164L20.7964 15.3903L20.8204 18.3183L22.1164 19.6383H28.9564L31.4524 22.1583V27.2223L28.9564 29.7423H19.2604ZM37.1453 29.7423L34.6253 27.2223V19.7103L37.1453 17.1903H43.0973L45.6173 19.7103V27.2223L43.0973 29.7423H37.1453ZM38.0573 28.0623H42.1853L43.5053 26.7423L43.4813 20.1903L42.1853 18.8703H38.0573L36.7373 20.1903V26.7423L38.0573 28.0623ZM51.6331 29.7423L49.1371 27.2223V17.1903H51.2491L51.2251 26.7183L52.5211 28.0623H55.6411L58.1131 25.5903V17.1903H60.2251V29.7423H58.1131V27.7983L56.1931 29.7423H51.6331ZM64.1399 29.7423V12.0543H66.2519V29.7423H64.1399ZM70.1633 29.7423V27.9903H76.8113L77.9393 26.8383V25.3263L76.7393 24.1263H71.7713L69.5633 21.9663V19.4223L71.7713 17.1903H78.8513V18.9663H72.7793L71.6753 20.0463V21.2703L72.8273 22.4223H77.8433L80.0513 24.5823V27.5343L77.8673 29.7423H70.1633ZM88.8224 29.7423V12.0543H100.486V14.0703H91.0064V19.4463H99.4784V21.4383H91.0064V27.7263H100.486V29.7423H88.8224ZM104.719 29.7423L102.223 27.2223V24.3663L104.719 21.8463H111.103V20.2863L109.807 18.9663H103.855V17.1903H110.719L113.215 19.7103V29.7423H111.103V27.7983L109.159 29.7423H104.719ZM105.655 28.0623H108.631L111.103 25.6143V23.5023L105.655 23.5263L104.335 24.8223V26.7423L105.655 28.0623ZM119.39 29.7423L117.182 27.5583V18.8703H115.862V17.1903H117.23L117.758 13.9743H119.294V17.1903H121.958V18.8703H119.294V26.8143L120.422 27.9903H122.51V29.7423H119.39ZM127.309 29.7423L124.789 27.2223V19.7103L127.309 17.1903H132.901L135.421 19.7103V24.2463H126.901V26.6703L128.221 27.9903H135.205V29.7423H127.309ZM126.901 22.5663H133.309V20.1903L131.989 18.8703H128.221L126.901 20.1903V22.5663ZM139.07 29.7423V17.1903H141.182V19.4463L143.366 17.1903H146.582V19.3023H143.462L141.182 21.6543V29.7423H139.07Z" fill="white"/>
<circle cx="163" cy="23" r="10" fill="white"/>
<path d="M166.784 7.24548L172.868 9.9848L168.541 18.5517L159 16L162.604 12.2962L166.784 7.24548Z" fill="white"/>
<path d="M157.124 7.78357L161.354 4.57356L172.5 10L167.997 15.076L157.124 7.78357Z" fill="white"/>
<path d="M164.962 1.47894L164.655 5.03503L163.981 10.927L157.5 7.74234L164.962 1.47894Z" fill="white"/>
<path d="M157.574 25.3839C156.47 24.8969 156.115 23.6001 156.821 22.6385C157.547 21.6504 159.04 21.4931 159.93 22.311L162.36 24.5434C162.857 24.9999 162.919 25.7326 162.506 26.2794C162.089 26.8331 161.309 27.0327 160.668 26.7499L157.574 25.3839Z" fill="black"/>
<path d="M168.331 23.2901C169.339 22.6692 170.744 23.06 171.305 24.1171C171.883 25.2036 171.291 26.4655 170.074 26.7435L166.808 27.4898C166.128 27.6451 165.403 27.3132 165.089 26.7031C164.771 26.0852 164.967 25.3642 165.553 25.0032L168.331 23.2901Z" fill="black"/>
</svg>
