<svg width="158" height="30" viewBox="0 0 158 30" fill="none" xmlns="http://www.w3.org/2000/svg">
<path d="M2.26044 28V25.984H10.9724L12.2684 24.664V21.136L10.9724 19.816H4.13244L1.63644 17.32V12.832L4.13244 10.312H13.5404V12.328H5.11644L3.79644 13.648L3.82044 16.576L5.11644 17.896H11.9564L14.4524 20.416V25.48L11.9564 28H2.26044ZM20.1453 28L17.6253 25.48V17.968L20.1453 15.448H26.0973L28.6173 17.968V25.48L26.0973 28H20.1453ZM21.0573 26.32H25.1853L26.5053 25L26.4813 18.448L25.1853 17.128H21.0573L19.7373 18.448V25L21.0573 26.32ZM34.6331 28L32.1371 25.48V15.448H34.2491L34.2251 24.976L35.5211 26.32H38.6411L41.1131 23.848V15.448H43.2251V28H41.1131V26.056L39.1931 28H34.6331ZM47.1399 28V10.312H49.2519V28H47.1399ZM53.1633 28V26.248H59.8113L60.9393 25.096V23.584L59.7393 22.384H54.7713L52.5633 20.224V17.68L54.7713 15.448H61.8513V17.224H55.7793L54.6753 18.304V19.528L55.8273 20.68H60.8433L63.0513 22.84V25.792L60.8673 28H53.1633ZM71.8224 28V10.312H83.4864V12.328H74.0064V17.704H82.4784V19.696H74.0064V25.984H83.4864V28H71.8224ZM87.7188 28L85.2228 25.48V22.624L87.7188 20.104H94.1028V18.544L92.8068 17.224H86.8548V15.448H93.7188L96.2148 17.968V28H94.1028V26.056L92.1588 28H87.7188ZM88.6548 26.32H91.6308L94.1028 23.872V21.76L88.6548 21.784L87.3348 23.08V25L88.6548 26.32ZM102.39 28L100.182 25.816V17.128H98.8623V15.448H100.23L100.758 12.232H102.294V15.448H104.958V17.128H102.294V25.072L103.422 26.248H105.51V28H102.39ZM110.309 28L107.789 25.48V17.968L110.309 15.448H115.901L118.421 17.968V22.504H109.901V24.928L111.221 26.248H118.205V28H110.309ZM109.901 20.824H116.309V18.448L114.989 17.128H111.221L109.901 18.448V20.824ZM122.07 28V15.448H124.182V17.704L126.366 15.448H129.582V17.56H126.462L124.182 19.912V28H122.07Z" fill="white"/>
<ellipse cx="146.402" cy="20.4491" rx="9.40154" ry="8.89091" fill="white"/>
<path d="M149.959 6.44191L155.679 8.87741L151.611 16.4941L142.641 14.2255L146.029 10.9324L149.959 6.44191Z" fill="white"/>
<path d="M140.878 6.92029L144.854 4.0663L155.333 8.8909L151.1 13.4039L140.878 6.92029Z" fill="white"/>
<path d="M148.246 1.31491L147.958 4.47659L147.324 9.71513L141.231 6.88364L148.246 1.31491Z" fill="white"/>
<path d="M141.262 22.5526C140.244 22.1277 139.928 20.9832 140.593 20.1271C141.276 19.2477 142.662 19.0949 143.483 19.8084L145.816 21.8348C146.273 22.2325 146.325 22.8793 145.937 23.3654C145.545 23.857 144.82 24.0382 144.231 23.7921L141.262 22.5526Z" fill="black"/>
<path d="M151.473 20.6728C152.39 20.1379 153.682 20.5015 154.211 21.4436C154.754 22.4111 154.234 23.522 153.126 23.7614L149.946 24.4485C149.329 24.582 148.66 24.2826 148.365 23.7404C148.066 23.1922 148.238 22.5589 148.769 22.2493L151.473 20.6728Z" fill="black"/>
</svg>
